<svg width="32" height="33" viewBox="0 0 32 33" fill="none" xmlns="http://www.w3.org/2000/svg">
<g opacity="0.8">
<path d="M6.66683 8.79004H30.6668V24.79H6.66683V8.79004ZM18.6668 12.79C19.7277 12.79 20.7451 13.2115 21.4953 13.9616C22.2454 14.7118 22.6668 15.7292 22.6668 16.79C22.6668 17.8509 22.2454 18.8683 21.4953 19.6185C20.7451 20.3686 19.7277 20.79 18.6668 20.79C17.606 20.79 16.5885 20.3686 15.8384 19.6185C15.0883 18.8683 14.6668 17.8509 14.6668 16.79C14.6668 15.7292 15.0883 14.7118 15.8384 13.9616C16.5885 13.2115 17.606 12.79 18.6668 12.79ZM12.0002 11.4567C12.0002 12.1639 11.7192 12.8422 11.2191 13.3423C10.719 13.8424 10.0407 14.1234 9.3335 14.1234V19.4567C10.0407 19.4567 10.719 19.7377 11.2191 20.2378C11.7192 20.7379 12.0002 21.4161 12.0002 22.1234H25.3335C25.3335 21.4161 25.6144 20.7379 26.1145 20.2378C26.6146 19.7377 27.2929 19.4567 28.0002 19.4567V14.1234C27.2929 14.1234 26.6146 13.8424 26.1145 13.3423C25.6144 12.8422 25.3335 12.1639 25.3335 11.4567H12.0002ZM1.3335 14.1234H4.00016V27.4567H25.3335V30.1234H1.3335V14.1234Z" fill="white"/>
</g>
</svg>
