<svg xmlns="http://www.w3.org/2000/svg" width="22" height="22" fill="none" viewBox="0 0 22 22">
  <mask id="a" width="22" height="22" x="0" y="0" maskUnits="userSpaceOnUse" style="mask-type:luminance">
    <path fill="#fff" d="M22 0H0v22h22V0Z"/>
  </mask>
  <g mask="url(#a)">
    <path stroke="#fff" stroke-linecap="round" stroke-linejoin="round" stroke-width="1.3" d="M9.167 13.75h-2.75a3.667 3.667 0 0 0-3.667 3.667v.916m15.583.917h-5.5m.268-5.194 2.789-2.787a.915.915 0 0 1 1.296 0l.879.878a.917.917 0 0 1 0 1.296l-2.789 2.789a.915.915 0 0 1-.648.268h-1.337a.458.458 0 0 1-.458-.458v-1.337a.92.92 0 0 1 .268-.649Zm-3.017-3.973a3.667 3.667 0 1 0 0-7.333 3.667 3.667 0 0 0 0 7.333Z"/>
  </g>
</svg>
