<svg xmlns="http://www.w3.org/2000/svg" width="22" height="22" fill="none" viewBox="0 0 22 22">
  <mask id="a" width="22" height="22" x="0" y="0" maskUnits="userSpaceOnUse" style="mask-type:luminance">
    <path fill="#fff" d="M22 0H0v22h22V0Z"/>
  </mask>
  <g mask="url(#a)">
    <path stroke="#A2A2A7" stroke-linecap="round" stroke-linejoin="round" stroke-width="1.3" d="M15.585 16.502V11a1.833 1.833 0 0 0-1.834-1.834h-9.17A1.834 1.834 0 0 0 2.747 11v5.502a1.833 1.833 0 0 0 1.834 1.834h9.17a1.834 1.834 0 0 0 1.834-1.834ZM2.747 12.906h12.838"/>
    <path stroke="#A2A2A7" stroke-linecap="round" stroke-linejoin="round" stroke-width="1.3" d="m5.681 9.166 1.11-4.145a1.832 1.832 0 0 1 2.247-1.293l8.858 2.375A1.83 1.83 0 0 1 19.19 8.35l-1.421 5.309a1.827 1.827 0 0 1-2.183 1.312"/>
  </g>
</svg>
