<svg xmlns="http://www.w3.org/2000/svg" width="22" height="22" fill="none" viewBox="0 0 22 22">
  <mask id="a" width="22" height="22" x="0" y="0" maskUnits="userSpaceOnUse" style="mask-type:luminance">
    <path fill="#fff" d="M22 0H0v22h22V0Z"/>
  </mask>
  <g mask="url(#a)">
    <path stroke="#A2A2A7" stroke-linecap="round" stroke-linejoin="round" stroke-width="1.3" d="M2.75 6.417h16.5M8.773 10.083H6.417m3.666 5.5H5.5a2.75 2.75 0 0 1-2.75-2.75V5.5A2.75 2.75 0 0 1 5.5 2.75h11a2.75 2.75 0 0 1 2.75 2.75v3.667m-3.398 9.814 4.046-4.046a.915.915 0 0 0 0-1.296l-1.454-1.454a.916.916 0 0 0-1.296 0l-4.046 4.046a.919.919 0 0 0-.268.649v2.37h2.37a.913.913 0 0 0 .648-.269Z"/>
  </g>
</svg>
