<svg width="32" height="33" viewBox="0 0 32 33" fill="none" xmlns="http://www.w3.org/2000/svg">
<g opacity="0.8">
<path d="M15.9998 6.1237C21.8798 6.1237 26.6665 10.9104 26.6665 16.7904C26.6665 22.6704 21.8798 27.457 15.9998 27.457C10.1198 27.457 5.33317 22.6704 5.33317 16.7904C5.33317 10.9104 10.1198 6.1237 15.9998 6.1237ZM15.9998 3.45703C8.6665 3.45703 2.6665 9.45703 2.6665 16.7904C2.6665 24.1237 8.6665 30.1237 15.9998 30.1237C23.3332 30.1237 29.3332 24.1237 29.3332 16.7904C29.3332 9.45703 23.3332 3.45703 15.9998 3.45703ZM11.2398 20.0437L9.4265 19.2304C9.79984 18.4837 9.99984 17.6837 9.99984 16.857C9.99984 15.977 9.79984 15.137 9.4265 14.3504L11.2398 13.537C11.7465 14.617 11.9998 15.7237 11.9998 16.857C11.9998 17.857 11.7465 18.9237 11.2398 20.0437ZM15.3732 22.0437L13.6265 21.177C14.3332 19.6704 14.6665 18.1237 14.6665 16.6037C14.6665 15.097 14.3332 13.7104 13.6265 12.4037L15.3732 11.4037C16.2532 12.9504 16.6665 14.6837 16.6665 16.6037C16.6665 18.5637 16.2532 20.377 15.3732 22.0437ZM19.5732 23.9237L17.7465 22.9904C18.7998 20.937 19.3332 18.8837 19.3332 16.7904C19.3332 14.697 18.7998 12.617 17.7465 10.537L19.5732 9.65703C20.7332 12.0304 21.3332 14.417 21.3332 16.7904C21.3332 19.217 20.7332 21.5904 19.5732 23.9237Z" fill="white"/>
</g>
</svg>
