<svg width="25" height="24" viewBox="0 0 25 24" fill="none" xmlns="http://www.w3.org/2000/svg">
<path fill-rule="evenodd" clip-rule="evenodd" d="M21.2705 2.02637L4.27107 6.02562L4.5 6.99872V8.0001H6.11259L5.973 8.4191C5.633 9.4381 5.633 10.5611 5.973 11.5811L6.11259 12.0001H3.5V14.0001H4.56219C5.05584 17.9409 8.42759 21.0001 12.5 21.0001C16.5724 21.0001 19.9442 17.9409 20.4378 14.0001H21.5V12.0001H14.2205L13.87 10.9481C13.666 10.3371 13.666 9.6631 13.87 9.0521L14.2205 8.0001H21.5V6.0001H13.1128L21.7285 3.97317L21.2705 2.02637ZM8.22146 12.0001H9.11259L8.973 11.5811C8.633 10.5611 8.633 9.4381 8.973 8.4191L9.11259 8.0001H8.22086L7.871 9.0521C7.667 9.6631 7.667 10.3371 7.871 10.9481L8.22146 12.0001ZM11.973 11.5811L12.1126 12.0001H11.2205L10.87 10.9481C10.666 10.3371 10.666 9.6631 10.87 9.0521L11.2205 8.0001H12.1126L11.973 8.4191C11.633 9.4381 11.633 10.5611 11.973 11.5811ZM12.5 19.0001C9.53164 19.0001 7.06058 16.8346 6.58329 14.0001H18.4167C17.9394 16.8346 15.4684 19.0001 12.5 19.0001Z" fill="white"/>
</svg>
