<svg width="21" height="21" viewBox="0 0 21 21" fill="none" xmlns="http://www.w3.org/2000/svg">
<path d="M17.3435 6.23752C16.9004 6.166 16.468 6.18573 16.0463 6.2482C15.6451 5.7254 15.1659 5.27905 14.6389 4.89023C14.939 2.619 13.3894 0.505595 11.1132 0.138154C8.79506 -0.236686 6.61337 1.33912 6.23852 3.65639C6.167 4.10028 6.18673 4.5343 6.2492 4.95682C5.76913 5.3259 5.34332 5.75664 4.9734 6.23505C2.67086 5.88487 0.51054 7.45164 0.138155 9.75575C-0.236695 12.0738 1.33916 14.2555 3.65649 14.6303C4.07244 14.6977 4.47853 14.6821 4.8764 14.6311C5.29646 15.2008 5.78722 15.7121 6.35936 16.1338C6.07411 18.3951 7.61872 20.4938 9.88673 20.8612C12.2049 21.236 14.3866 19.6602 14.7614 17.343C14.8346 16.8892 14.814 16.4461 14.7466 16.0154C15.2621 15.6184 15.7249 15.1646 16.1137 14.6394C18.3833 14.9369 20.4935 13.3882 20.861 11.1137C21.2366 8.79481 19.6608 6.61236 17.3435 6.23752ZM18.1458 8.34352H18.8963L17.0804 10.9658H18.2584V11.3899H16.953V11.8766H18.2584V12.3007H16.953V13.2115H16.3093V12.2999H15.0549V11.8766H16.3093V11.3899H15.0549V10.9658H16.1869L14.4334 8.34435H15.2168L16.177 9.81165C16.3545 10.0862 16.519 10.3608 16.6719 10.6353C16.8182 10.3805 16.9949 10.0944 17.2029 9.77548L18.1458 8.34352ZM12.1268 2.07071L11.9936 2.52118C11.7848 2.41925 11.4864 2.34362 11.1313 2.34362C10.3537 2.34362 9.78398 2.73326 9.56531 3.43115H11.7396L11.5366 3.95971H9.47653C9.47325 4.00903 9.46503 4.05342 9.46503 4.10521C9.46503 4.20467 9.47571 4.29674 9.48558 4.3888H11.3705L11.1675 4.91736H9.62286C9.86289 5.48208 10.3726 5.82322 11.1066 5.82322C11.4429 5.82322 11.7848 5.75335 12.006 5.64567L12.1202 6.08298C11.9172 6.18409 11.5119 6.28602 10.9924 6.28602C10.0421 6.28602 9.28582 5.80596 9.00551 4.91818H8.30513V4.38963H8.90357C8.89535 4.30167 8.88138 4.21865 8.88138 4.12494C8.88138 4.06739 8.89289 4.01643 8.89535 3.96053H8.30513V3.43197H8.98167C9.24225 2.48748 10.0331 1.88165 11.1116 1.88165C11.6451 1.88083 11.9805 1.99509 12.1268 2.07071ZM6.89204 3.71064C6.95205 3.49691 7.01041 3.28483 7.06878 3.07686C7.17318 2.86807 7.27182 2.6601 7.38115 2.46611C7.50857 2.28691 7.65161 2.12908 7.78067 1.96796C8.07742 1.68272 8.37829 1.42954 8.70382 1.27747C9.00386 1.0769 9.34254 1.03826 9.6097 0.94373C9.89742 0.922358 10.144 0.882901 10.3479 0.887833C10.7515 0.937976 10.9817 0.965925 10.9817 0.965925C10.9817 0.965925 10.7523 0.966747 10.3504 0.969213C10.1531 0.984831 9.91633 1.04813 9.64752 1.09498C9.39926 1.21582 9.09182 1.27994 8.82055 1.48215C8.52543 1.6408 8.2632 1.8948 8.00837 2.171C7.90068 2.32636 7.7782 2.47844 7.67462 2.64366C7.59817 2.82039 7.50857 2.99302 7.41979 3.17057C7.36636 3.38019 7.3121 3.59227 7.2562 3.80764C7.24469 4.0115 7.23401 4.21782 7.2225 4.42497C7.23647 4.63705 7.28333 4.84913 7.31046 5.06203C7.37129 5.26836 7.45678 5.46811 7.52501 5.67279C7.6327 5.85939 7.73627 6.05174 7.84972 6.23341C7.9944 6.39288 8.12428 6.56715 8.27718 6.71511C8.44816 6.84088 8.60599 6.99131 8.78191 7.09735C8.96769 7.18448 9.13292 7.29217 9.32692 7.36615C9.52915 7.42369 9.72726 7.48123 9.92126 7.5363C10.1169 7.55275 10.3093 7.59467 10.4983 7.59056C10.8756 7.58809 11.2365 7.53877 11.5514 7.42698C11.8695 7.32751 12.1457 7.18366 12.3775 7.03816C12.6126 6.89102 12.791 6.73319 12.9324 6.59345C13.0845 6.46357 13.1683 6.32301 13.2431 6.24574C13.3122 6.16189 13.3492 6.11833 13.3492 6.11833C13.3492 6.11833 13.3163 6.166 13.2596 6.25807C13.1946 6.34438 13.1363 6.49645 12.9932 6.64442C12.8633 6.80389 12.694 6.98802 12.4663 7.16475C12.2427 7.34231 11.9665 7.52562 11.6311 7.6481C11.3015 7.78784 10.9167 7.86676 10.5041 7.8947C10.2978 7.91114 10.0857 7.88073 9.86783 7.87415C9.66067 7.82237 9.44941 7.77058 9.23321 7.71715C9.02359 7.64317 8.80822 7.52315 8.59202 7.42204C8.38651 7.30367 8.20977 7.14502 8.01495 7.00364C7.83903 6.84252 7.6886 6.65099 7.52419 6.47261C7.3902 6.27122 7.26936 6.05832 7.14523 5.84788C7.06796 5.6169 6.98 5.38755 6.9167 5.1541C6.88875 4.91243 6.84189 4.67322 6.83285 4.43566C6.85258 4.18987 6.85423 3.97533 6.89204 3.71064ZM4.13327 12.5259C3.65649 12.5259 3.22738 12.4125 2.9372 12.2506L3.1312 11.5313C3.35727 11.6686 3.78473 11.8149 4.14067 11.8149C4.57635 11.8149 4.77118 11.6373 4.77118 11.3792C4.77118 11.1121 4.60923 10.9756 4.12423 10.8055C3.35727 10.5383 3.0342 10.1183 3.04242 9.65793C3.04242 9.06608 3.46084 8.58931 4.14889 8.45943V7.84045H4.64951V8.42901C5.03341 8.44874 5.36633 8.54656 5.57184 8.65671L5.37784 9.35954C5.20768 9.26254 4.89284 9.13266 4.54511 9.13266C4.18999 9.13266 3.99599 9.30282 3.99599 9.54449C3.99599 9.79521 4.18177 9.91604 4.68322 10.0936C5.39428 10.3525 5.72474 10.7159 5.73296 11.297C5.73296 11.8782 5.35482 12.3246 4.64951 12.47V13.0274H4.14889V12.5251C4.14314 12.5251 4.1382 12.5259 4.13327 12.5259ZM4.4029 13.9949C4.19657 14.0113 3.98366 13.9809 3.76664 13.9743C3.55949 13.9226 3.34822 13.8708 3.13285 13.8173C2.92323 13.7434 2.70785 13.6233 2.49166 13.5222C2.28615 13.4039 2.10941 13.2452 1.91458 13.1038C1.73867 12.9427 1.58823 12.7512 1.42383 12.5728C1.28983 12.3714 1.16899 12.1585 1.04487 11.9481C0.967594 11.7163 0.879636 11.4877 0.816338 11.2543C0.788389 11.0126 0.741533 10.7734 0.731669 10.5358C0.751398 10.2901 0.753042 10.0755 0.791678 9.81082C0.851686 9.5971 0.910051 9.38502 0.967594 9.17705C1.07199 8.96826 1.17064 8.76029 1.27997 8.56629C1.40739 8.38709 1.55042 8.22926 1.67948 8.06815C1.97624 7.78291 2.2771 7.52973 2.60263 7.37766C2.90268 7.17708 3.24136 7.13845 3.50852 7.04392C3.79624 7.02172 4.04285 6.98309 4.24671 6.98802C4.65034 7.03816 4.88051 7.06611 4.88051 7.06611C4.88051 7.06611 4.65116 7.06775 4.24918 7.0694C4.05189 7.08502 3.81432 7.14831 3.54633 7.19517C3.29808 7.316 2.99064 7.38012 2.71936 7.58234C2.42425 7.74099 2.16202 7.99499 1.90719 8.27119C1.7995 8.42655 1.67701 8.57862 1.57344 8.74385C1.49699 8.92058 1.40739 9.0932 1.31861 9.27076C1.26517 9.48037 1.21092 9.69245 1.15502 9.90782C1.14351 10.1109 1.13282 10.318 1.12132 10.5252C1.13529 10.7372 1.18215 10.9493 1.20927 11.1622C1.27011 11.3685 1.3556 11.5683 1.42383 11.773C1.53151 11.9596 1.63509 12.1519 1.74853 12.3336C1.89321 12.4931 2.02309 12.6673 2.17599 12.8153C2.34698 12.9411 2.50481 13.0907 2.68073 13.1975C2.86651 13.2847 3.03256 13.3924 3.22574 13.4663C3.42796 13.5239 3.62607 13.5806 3.82007 13.6365C4.01572 13.6529 4.20808 13.6949 4.39715 13.6907C4.77446 13.6883 5.13534 13.639 5.45018 13.5272C5.76831 13.4269 6.04452 13.2838 6.27633 13.1383C6.51144 12.9912 6.68982 12.8334 6.83121 12.6936C6.98329 12.5638 7.06713 12.4232 7.14194 12.3459C7.21099 12.2621 7.24798 12.2185 7.24798 12.2185C7.24798 12.2185 7.21839 12.2662 7.16085 12.3583C7.09591 12.4446 7.03754 12.5966 6.89451 12.7446C6.76462 12.9041 6.59528 13.0882 6.36758 13.2649C6.14398 13.4425 5.86778 13.6258 5.53156 13.7483C5.20028 13.888 4.81474 13.9669 4.4029 13.9949ZM13.3894 18.5883C13.3245 18.6746 13.2661 18.8267 13.1231 18.9747C12.9932 19.1341 12.8239 19.3183 12.5962 19.495C12.3726 19.6726 12.0964 19.8559 11.761 19.9784C11.4313 20.1181 11.0466 20.1978 10.634 20.225C10.4276 20.2414 10.2147 20.211 9.99771 20.2044C9.79055 20.1526 9.57929 20.1008 9.36391 20.0474C9.15429 19.9734 8.93892 19.8534 8.72272 19.7523C8.51721 19.6339 8.34047 19.4753 8.14565 19.3339C7.96973 19.1728 7.8193 18.9812 7.65489 18.8029C7.5209 18.6015 7.40006 18.3886 7.27593 18.1781C7.19866 17.9471 7.1107 17.7178 7.04741 17.4844C7.01946 17.2427 6.9726 17.0035 6.96356 16.7659C6.98329 16.5201 6.98493 16.3056 7.02357 16.0409C7.08357 15.8272 7.14194 15.6151 7.2003 15.4071C7.3047 15.1983 7.40335 14.9904 7.51268 14.7964C7.6401 14.6172 7.78313 14.4593 7.91219 14.2982C8.20895 14.013 8.50982 13.759 8.83534 13.6077C9.13539 13.4071 9.47407 13.3685 9.74123 13.274C10.0289 13.2526 10.2756 13.2132 10.4794 13.2181C10.8822 13.2682 11.1132 13.2962 11.1132 13.2962C11.1132 13.2962 10.8839 13.297 10.4819 13.2995C10.2846 13.3151 10.0479 13.3784 9.77905 13.4252C9.53079 13.5461 9.22335 13.6102 8.95207 13.8124C8.65696 13.9711 8.39473 14.2251 8.1399 14.5013C8.03221 14.6566 7.90973 14.8087 7.80615 14.9739C7.7297 15.1506 7.6401 15.3233 7.55132 15.5008C7.49788 15.7104 7.44363 15.9225 7.38773 16.1379C7.37622 16.3409 7.36553 16.5481 7.35403 16.7552C7.368 16.9673 7.41486 17.1794 7.44198 17.3923C7.50282 17.5986 7.58831 17.7984 7.65654 18.003C7.76422 18.1896 7.8678 18.382 7.98124 18.5637C8.12592 18.7231 8.25581 18.8974 8.4087 19.0454C8.57969 19.1711 8.73752 19.3216 8.91344 19.4276C9.09922 19.5147 9.26445 19.6224 9.45845 19.6964C9.66067 19.7539 9.85878 19.8115 10.0528 19.8666C10.2484 19.883 10.4408 19.9249 10.6299 19.9208C11.0072 19.9183 11.368 19.869 11.6829 19.7572C12.001 19.6578 12.2772 19.5139 12.509 19.3684C12.7441 19.2213 12.9225 19.0634 13.0639 18.9237C13.216 18.7938 13.2998 18.6533 13.3747 18.576C13.4437 18.4921 13.4807 18.4486 13.4807 18.4486C13.4807 18.4486 13.4462 18.4954 13.3894 18.5883ZM11.0943 15.7721V16.4018H9.79549C9.82508 16.7289 9.90317 17.0824 10.0873 17.4293C10.1005 17.4416 10.1153 17.4556 10.1292 17.4687C10.5855 17.3989 11.1083 17.5024 11.6821 17.7885C11.6903 17.7926 11.821 17.8584 12.0084 17.911V18.7075C11.5982 18.6327 11.308 18.4798 11.2858 18.4667C10.8822 18.2661 10.5205 18.1864 10.2386 18.239C10.1218 18.4584 9.87851 18.6648 9.50613 18.8637C9.44365 18.8974 9.3746 18.9138 9.30555 18.9138C9.21019 18.9138 9.11648 18.8826 9.04003 18.8218C8.90933 18.7157 8.86165 18.5448 8.92166 18.3927C8.93892 18.3483 9.0614 18.0532 9.37049 17.8049C9.11073 17.3241 9.00633 16.8407 8.97427 16.4034H8.43419V15.7737H8.9718C9.01537 15.2386 9.1469 14.8662 9.15923 14.8358C9.43708 14.1108 9.90728 13.8461 10.2542 13.7508C10.8978 13.5716 11.5777 13.8297 12.0092 14.0565V14.964C11.9887 14.9534 11.9665 14.9493 11.9484 14.9361C11.7125 14.7659 10.9916 14.3549 10.4811 14.4947C10.2394 14.5621 10.0602 14.7585 9.9303 15.0956C9.92866 15.0989 9.83659 15.3734 9.79713 15.7737H11.0943V15.7721ZM11.2431 12.4676C9.22335 12.1412 7.30881 13.2962 6.60104 15.1326C6.33059 14.9049 6.08315 14.6558 5.85709 14.3853C7.22003 13.8584 8.28211 12.6591 8.53201 11.1129C8.85343 9.1228 7.73217 7.23956 5.94258 6.50796C6.12014 6.30575 6.31003 6.11668 6.51308 5.93913C7.05645 7.26257 8.24101 8.28598 9.75685 8.53177C11.7774 8.85811 13.692 7.70235 14.3997 5.86597C14.6357 6.06489 14.8535 6.28191 15.0565 6.51454C13.7347 7.05789 12.7137 8.24242 12.4688 9.75739C12.1424 11.7746 13.2949 13.6858 15.1264 14.396C14.9275 14.632 14.7179 14.8539 14.4861 15.0569C13.9419 13.7343 12.7573 12.7125 11.2431 12.4676ZM19.4898 12.3583C19.4249 12.4446 19.3665 12.5966 19.2235 12.7446C19.0936 12.9041 18.9242 13.0882 18.6965 13.2649C18.4729 13.4425 18.1967 13.6258 17.8613 13.7483C17.5317 13.888 17.147 13.9678 16.7343 13.9949C16.528 14.0113 16.3159 13.9809 16.0981 13.9743C15.8909 13.9226 15.6788 13.8708 15.4635 13.8173C15.2538 13.7434 15.0385 13.6233 14.8223 13.5222C14.6168 13.4039 14.44 13.2452 14.2452 13.1038C14.0693 12.9427 13.9188 12.7512 13.7544 12.5728C13.6204 12.3714 13.4996 12.1585 13.3755 11.9481C13.2982 11.7171 13.2102 11.4877 13.1469 11.2543C13.119 11.0126 13.0721 10.7734 13.0631 10.5358C13.0836 10.2901 13.0845 10.0755 13.1231 9.81082C13.1831 9.5971 13.2415 9.38502 13.2998 9.17705C13.4042 8.96826 13.5037 8.76029 13.6122 8.56629C13.7396 8.38709 13.8827 8.22926 14.0117 8.06815C14.3085 7.78291 14.6094 7.52973 14.9349 7.37766C15.2349 7.17708 15.5736 7.13845 15.8408 7.04392C16.1285 7.02254 16.3751 6.98309 16.579 6.98802C16.9826 7.03816 17.2128 7.06611 17.2128 7.06611C17.2128 7.06611 16.9834 7.06693 16.5814 7.0694C16.3841 7.08502 16.1474 7.14831 15.8786 7.19517C15.6303 7.316 15.3229 7.38012 15.0516 7.58234C14.7565 7.74099 14.4943 7.99499 14.2394 8.27119C14.1318 8.42655 14.0093 8.57862 13.9057 8.74385C13.8292 8.92058 13.7396 9.0932 13.6509 9.27076C13.5974 9.48037 13.5432 9.69245 13.4873 9.90782C13.4758 10.1109 13.4651 10.318 13.4536 10.5252C13.4675 10.7372 13.5144 10.9493 13.5415 11.1622C13.6024 11.3685 13.6878 11.5683 13.7561 11.773C13.8638 11.9596 13.9673 12.1519 14.0808 12.3336C14.2255 12.4931 14.3553 12.6673 14.5082 12.8153C14.6792 12.9411 14.8371 13.0915 15.013 13.1975C15.1988 13.2847 15.364 13.3924 15.558 13.4663C15.7602 13.5239 15.9583 13.5814 16.1523 13.6365C16.348 13.6529 16.5403 13.6949 16.7294 13.6907C17.1067 13.6883 17.4676 13.639 17.7824 13.5272C18.1006 13.4277 18.3768 13.2838 18.6086 13.1383C18.8437 12.9912 19.0221 12.8334 19.1635 12.6936C19.3155 12.5638 19.3994 12.4232 19.4742 12.3459C19.5432 12.2621 19.5802 12.2185 19.5802 12.2185C19.5802 12.2185 19.5465 12.2654 19.4898 12.3583Z" fill="#FEFEFE"/>
</svg>
