<svg xmlns="http://www.w3.org/2000/svg" width="25" height="24" fill="none" viewBox="0 0 25 24">
  <g clip-path="url(#a)">
    <path stroke="#fff" stroke-linecap="round" stroke-linejoin="round" stroke-width="1.4" d="M12.5 6v1.5m0 10.5v-1.5m2.984-6.9a2.243 2.243 0 0 0-2.234-2.1h-1.644a2.106 2.106 0 0 0-.512 4.15l2.811.705a2.106 2.106 0 0 1-.512 4.15h-1.644A2.244 2.244 0 0 1 9.513 14.4"/>
    <path stroke="#fff" stroke-width="1.5" d="M1.25 12C1.25 5.787 6.287.75 12.5.75S23.75 5.787 23.75 12 18.713 23.25 12.5 23.25 1.25 18.213 1.25 12Z"/>
  </g>
  <defs>
    <clipPath id="a">
      <path fill="#fff" d="M0 0h25v24H0z"/>
    </clipPath>
  </defs>
</svg>
