<svg xmlns="http://www.w3.org/2000/svg" width="22" height="22" fill="none" viewBox="0 0 22 22">
  <g clip-path="url(#a)">
    <mask id="b" width="22" height="22" x="0" y="0" maskUnits="userSpaceOnUse" style="mask-type:luminance">
      <path fill="#fff" d="M22 0H0v22h22V0Z"/>
    </mask>
    <g mask="url(#b)">
      <path stroke="#A2A2A7" stroke-linecap="round" stroke-linejoin="round" stroke-width="1.3" d="M12.62 9.38a2.292 2.292 0 1 1-3.24 3.24 2.292 2.292 0 0 1 3.24-3.24Z"/>
      <path stroke="#A2A2A7" stroke-linecap="round" stroke-linejoin="round" stroke-width="1.3" d="m13.612 3.777.534.178c.49.163.82.621.82 1.137v.767a1.2 1.2 0 0 0 1.174 1.2l.768.016c.445.009.848.265 1.047.663l.252.504a1.2 1.2 0 0 1-.225 1.384l-.542.543a1.2 1.2 0 0 0-.019 1.677l.532.556c.308.321.413.786.271 1.209l-.177.534a1.2 1.2 0 0 1-1.138.82h-.767a1.2 1.2 0 0 0-1.2 1.174l-.016.768a1.2 1.2 0 0 1-.663 1.047l-.504.252a1.2 1.2 0 0 1-1.384-.225l-.543-.542a1.2 1.2 0 0 0-1.677-.019l-.556.532a1.198 1.198 0 0 1-1.209.271l-.534-.177a1.2 1.2 0 0 1-.82-1.138v-.767a1.2 1.2 0 0 0-1.174-1.2l-.768-.016a1.2 1.2 0 0 1-1.047-.663l-.252-.504a1.199 1.199 0 0 1 .225-1.384l.542-.543a1.2 1.2 0 0 0 .019-1.677l-.532-.556a1.2 1.2 0 0 1-.272-1.21l.178-.534a1.2 1.2 0 0 1 1.137-.82h.767a1.2 1.2 0 0 0 1.2-1.174l.016-.768c.011-.444.266-.848.664-1.047l.504-.252a1.199 1.199 0 0 1 1.384.225l.543.542a1.2 1.2 0 0 0 1.677.019l.556-.532a1.2 1.2 0 0 1 1.209-.27Z"/>
    </g>
  </g>
  <defs>
    <clipPath id="a">
      <path fill="#fff" d="M0 0h22v22H0z"/>
    </clipPath>
  </defs>
</svg>
