<svg xmlns="http://www.w3.org/2000/svg" width="22" height="22" fill="none" viewBox="0 0 22 22">
  <g clip-path="url(#a)">
    <mask id="b" width="22" height="22" x="0" y="0" maskUnits="userSpaceOnUse" style="mask-type:luminance">
      <path fill="#fff" d="M22 0H0v22h22V0Z"/>
    </mask>
    <g mask="url(#b)">
      <path stroke="#A2A2A7" stroke-linecap="round" stroke-linejoin="round" stroke-width="1.3" d="M7.333 9.167v-2.75a3.667 3.667 0 0 1 7.334 0v2.75m.917 10.083H6.417a1.833 1.833 0 0 1-1.833-1.833V11c0-1.013.82-1.833 1.833-1.833h9.166c1.013 0 1.834.82 1.834 1.833v6.417c0 1.013-.82 1.833-1.834 1.833Z"/>
      <path stroke="#A2A2A7" stroke-linecap="round" stroke-linejoin="round" stroke-width="1.5" d="M8.25 14.246c-.003 0-.004.002-.004.004 0 .003.001.005.004.005s.005-.002.005-.005c0-.002-.002-.004-.005-.004Zm2.755 0c-.003 0-.005.002-.005.004 0 .003.005.005.005.005.002 0 .004-.002.004-.005a.004.004 0 0 0-.004-.004Zm2.745 0c-.003 0-.004.002-.004.004 0 .003.001.005.004.005s.005-.002.005-.005a.004.004 0 0 0-.005-.004Z"/>
    </g>
  </g>
  <defs>
    <clipPath id="a">
      <path fill="#fff" d="M0 0h22v22H0z"/>
    </clipPath>
  </defs>
</svg>
