<svg xmlns="http://www.w3.org/2000/svg" width="267" height="267" fill="none" viewBox="0 0 267 267">
  <g clip-path="url(#a)">
    <path fill="url(#b)" d="M133.5 175c22.92 0 41.5-18.58 41.5-41.5S156.42 92 133.5 92 92 110.58 92 133.5s18.58 41.5 41.5 41.5Z"/>
    <path fill="#fff" d="M151.441 115.367c-11.244-8.341-23.362-8.553-34.937-.148a1.621 1.621 0 0 0 1.904 2.622c10.459-7.596 21.03-7.344 31.103.128a1.62 1.62 0 1 0 1.93-2.602Z"/>
    <path fill="#fff" d="M133.872 115.912c-6.882 0-15.73 4.582-19.492 10.225a1.621 1.621 0 0 0 2.696 1.798c3.119-4.679 10.968-8.783 16.796-8.783 5.707 0 13.513 3.045 16.738 8.688.299.523.845.816 1.408.816 1.222 0 2.028-1.333 1.405-2.424-3.714-6.499-12.435-10.32-19.551-10.32Zm-8.748 26.676c0-5.3 3.925-9.612 8.748-9.612 4.824 0 8.748 4.312 8.748 9.612v1.728a1.62 1.62 0 0 0 3.24 0v-1.728c0-7.087-5.377-12.852-11.988-12.852-6.61 0-11.988 5.765-11.988 12.852 0 6.889 5.18 10.579 7.466 13.882.315.454.82.698 1.334.698 1.29 0 2.079-1.461 1.33-2.542-2.475-3.575-6.89-6.539-6.89-12.038Z"/>
    <path fill="#fff" d="M151.737 148.496c5.007-10.013-3.896-25.672-17.865-25.672-9.834 0-18.9 8.335-18.9 18.9 0 3.836.492 7.08 2.893 10.445a1.621 1.621 0 0 0 2.638-1.882c-1.691-2.37-2.291-4.611-2.291-8.563 0-8.342 7.318-15.66 15.66-15.66 4.2 0 8.347 1.852 11.379 5.082 4.293 4.572 5.835 11.408 3.588 15.902-2.338 4.677-9.891 3.351-9.891-2.732 0-12.014-12.307-8.421-10.103.393a1.62 1.62 0 1 0 3.143-.786c-.566-2.264.472-4.035 1.884-4.035 1.268 0 1.836 2.224 1.836 4.428 0 9.486 12.152 11.936 16.029 4.18Z"/>
    <path stroke="url(#c)" stroke-width="2" d="M133.5 220c47.773 0 86.5-38.727 86.5-86.5S181.273 47 133.5 47 47 85.727 47 133.5 85.727 220 133.5 220Z" opacity=".6"/>
    <path stroke="url(#d)" stroke-width="2" d="M133.5 266c73.178 0 132.5-59.322 132.5-132.5S206.678 1 133.5 1 1 60.322 1 133.5 60.322 266 133.5 266Z" opacity=".2"/>
  </g>
  <defs>
    <linearGradient id="b" x1="131.477" x2="191.57" y1="191.297" y2="139.039" gradientUnits="userSpaceOnUse">
      <stop stop-color="#5E52D2"/>
      <stop offset="1" stop-color="#B697F9"/>
    </linearGradient>
    <linearGradient id="c" x1="110.402" x2="256.027" y1="254.043" y2="155.949" gradientUnits="userSpaceOnUse">
      <stop stop-color="#5E52D2"/>
      <stop offset="1" stop-color="#B697F9"/>
    </linearGradient>
    <linearGradient id="d" x1="96.658" x2="322.518" y1="324.359" y2="176.879" gradientUnits="userSpaceOnUse">
      <stop offset=".015" stop-color="#4D44A3"/>
      <stop offset="1" stop-color="#B697F9"/>
    </linearGradient>
    <clipPath id="a">
      <path fill="#fff" d="M0 0h267v267H0z"/>
    </clipPath>
  </defs>
</svg>
