<svg xmlns="http://www.w3.org/2000/svg" width="29" height="25" fill="none" viewBox="0 0 29 25">
  <g clip-path="url(#a)">
    <path stroke="#4B5B98" d="M14.5 15.5c0 2.061-.074 3.718-2 5m2.074-11.217C14.514 5.84 14.443 4.013 16 3.5"/>
    <path stroke="#4B5B98" d="M.5 4A3.5 3.5 0 0 1 4 .5h21A3.5 3.5 0 0 1 28.5 4v17a3.5 3.5 0 0 1-3.5 3.5H4A3.5 3.5 0 0 1 .5 21V4Z"/>
    <path stroke="#4B5B98" d="M3.5 5A1.5 1.5 0 0 1 5 3.5h19A1.5 1.5 0 0 1 25.5 5v14a1.5 1.5 0 0 1-1.5 1.5H5A1.5 1.5 0 0 1 3.5 19V5Z"/>
    <path stroke="#4B5B98" d="M3.5 7.5h7v9h-7v-9Z"/>
    <path stroke="#4B5B98" d="M3.5 12.5h7v4h-7v-4ZM10 9h9m0 6h-9m8.5-2.5h7v4h-7v-4Z"/>
    <path stroke="#4B5B98" d="M18.5 7.5h7v9h-7v-9Z"/>
  </g>
  <defs>
    <clipPath id="a">
      <path fill="#fff" d="M0 0h29v25H0z"/>
    </clipPath>
  </defs>
</svg>
