<svg xmlns="http://www.w3.org/2000/svg" width="22" height="22" fill="none" viewBox="0 0 22 22">
  <g clip-path="url(#a)">
    <mask id="b" width="22" height="22" x="0" y="0" maskUnits="userSpaceOnUse" style="mask-type:luminance">
      <path fill="#fff" d="M22 0H0v22h22V0Z"/>
    </mask>
    <g mask="url(#b)">
      <path stroke="#A2A2A7" stroke-linecap="round" stroke-linejoin="round" stroke-width="1.3" d="m6.874 8.937 2.682 1.654a2.751 2.751 0 0 0 2.888 0l2.683-1.654"/>
      <path stroke="#A2A2A7" stroke-linecap="round" stroke-linejoin="round" stroke-width="1.3" d="M2.747 7.58a3 3 0 0 1 3-3h10.506a3 3 0 0 1 3 3v6.84a3 3 0 0 1-3 3H5.747a3 3 0 0 1-3-3V7.58Z"/>
    </g>
  </g>
  <defs>
    <clipPath id="a">
      <path fill="#fff" d="M0 0h22v22H0z"/>
    </clipPath>
  </defs>
</svg>
