<svg width="25" height="24" viewBox="0 0 25 24" fill="none" xmlns="http://www.w3.org/2000/svg">
<path fill-rule="evenodd" clip-rule="evenodd" d="M20.27 7.23L20.28 7.22L16.56 3.5L15.5 4.56L17.61 6.67C16.67 7.03 16 7.93 16 9C16 10.38 17.12 11.5 18.5 11.5C18.86 11.5 19.19 11.42 19.5 11.29V18.5C19.5 19.05 19.05 19.5 18.5 19.5C17.95 19.5 17.5 19.05 17.5 18.5V14C17.5 12.9 16.6 12 15.5 12H14.5V5C14.5 3.9 13.6 3 12.5 3H6.5C5.4 3 4.5 3.9 4.5 5V21H14.5V13.5H16V18.5C16 19.88 17.12 21 18.5 21C19.88 21 21 19.88 21 18.5V9C21 8.31 20.72 7.68 20.27 7.23ZM12.5 13.5V19H6.5V12H12.5V13.5ZM12.5 10H6.5V5H12.5V10ZM18.5 10C17.95 10 17.5 9.55 17.5 9C17.5 8.45 17.95 8 18.5 8C19.05 8 19.5 8.45 19.5 9C19.5 9.55 19.05 10 18.5 10Z" fill="white"/>
</svg>
