<svg width="25" height="24" viewBox="0 0 25 24" fill="none" xmlns="http://www.w3.org/2000/svg">
<path fill-rule="evenodd" clip-rule="evenodd" d="M21.5 6C22.6 6 23.5 6.9 23.5 8V16C23.5 17.1 22.6 18 21.5 18H3.5C2.4 18 1.5 17.1 1.5 16V8C1.5 6.9 2.4 6 3.5 6H21.5ZM21.5 16V8H3.5V16H21.5ZM6.5 15V13H4.5V11H6.5V9H8.5V11H10.5V13H8.5V15H6.5ZM15 15C14.1716 15 13.5 14.3284 13.5 13.5C13.5 12.6716 14.1716 12 15 12C15.8284 12 16.5 12.6716 16.5 13.5C16.5 14.3284 15.8284 15 15 15ZM19 12C18.1716 12 17.5 11.3284 17.5 10.5C17.5 9.67157 18.1716 9 19 9C19.8284 9 20.5 9.67157 20.5 10.5C20.5 11.3284 19.8284 12 19 12Z" fill="white"/>
</svg>
