<svg xmlns="http://www.w3.org/2000/svg" width="35" height="25" fill="none" viewBox="0 0 35 25">
  <path fill="#7E848D" d="M0 4a4 4 0 0 1 4-4h27a4 4 0 0 1 4 4v17a4 4 0 0 1-4 4H4a4 4 0 0 1-4-4V4Z"/>
  <path fill="#7E848D" stroke="#27233D" stroke-width="1.5" d="M.75 4A3.25 3.25 0 0 1 4 .75h27A3.25 3.25 0 0 1 34.25 4v17A3.25 3.25 0 0 1 31 24.25H4A3.25 3.25 0 0 1 .75 21V4Z"/>
  <path fill="#7E848D" d="M1 10h10.677l5.338-7 5.823 7H34"/>
  <path stroke="#27233D" stroke-linecap="round" stroke-width="1.5" d="M1 10h10.677l5.338-7 5.823 7H34"/>
  <path fill="#7E848D" d="M1 15h10.805l5.338 7 5.824-7H34"/>
  <path stroke="#27233D" stroke-linecap="round" stroke-width="1.5" d="M1 15h10.805l5.338 7 5.824-7H34"/>
</svg>
