<svg xmlns="http://www.w3.org/2000/svg" width="21" height="19" fill="none" viewBox="0 0 21 19">
  <path fill="#8B8B94" d="M6.383 4.75a.75.75 0 0 0 0 1.5h4.5a.75.75 0 0 0 0-1.5h-4.5Zm10.999 5a.75.75 0 1 1-1.5 0 .75.75 0 0 1 1.5 0Z"/>
  <path fill="#8B8B94" fill-rule="evenodd" d="M.883 6a6 6 0 0 1 6-6h8a6 6 0 0 1 6 6v7a6 6 0 0 1-6 6h-8a6 6 0 0 1-6-6V6Zm6-4.5h8a4.5 4.5 0 0 1 4.5 4.5v.185H16.87a3.782 3.782 0 1 0 0 7.565h2.45a4.501 4.501 0 0 1-4.437 3.75h-8a4.5 4.5 0 0 1-4.5-4.5V6a4.5 4.5 0 0 1 4.5-4.5Zm12.5 10.75V7.685H16.87a2.283 2.283 0 1 0 0 4.565h2.513Z" clip-rule="evenodd"/>
</svg>
