<svg xmlns="http://www.w3.org/2000/svg" width="44" height="13" fill="none" viewBox="0 0 44 13">
  <path fill="#fff" d="M43.287 12.741c-.393 0-.713-.305-.713-.681 0-.375.32-.681.713-.681.393 0 .713.306.713.681 0 .376-.32.681-.713.681Zm0-1.197a.53.53 0 0 0-.542.517.53.53 0 0 0 .541.517.53.53 0 0 0 .542-.517.53.53 0 0 0-.542-.517Zm-.096.816-.146-.001v-.598h.265a.3.3 0 0 1 .16.03c.048.034.078.09.078.15a.162.162 0 0 1-.107.155l.114.262-.163.001-.094-.236h-.107v.237Zm-9.635.425h-3.59L35.103 1.16c.003-.01.325-.935 1.59-.935h2.77l2.757 12.557-3.162.001-.404-1.865h-4.38l-.718 1.866Zm3.52-9.144-1.808 4.701h2.828l-1.02-4.7Zm-6.841-.396.492-2.697S29.21 0 27.629 0c-1.71 0-5.77.709-5.77 4.158 0 3.245 4.765 3.285 4.765 4.988 0 1.704-4.274 1.4-5.685.325l-.512 2.819s1.538.71 3.889.71c2.35 0 5.898-1.156 5.898-4.3 0-3.265-4.808-3.57-4.808-4.989 0-1.42 3.355-1.238 4.829-.466Zm-11.931 9.539h-3.445L17.012.226h3.446l-2.154 12.558Zm-8.118 0H6.597L3.605 1.876c.533.302 1.04.638 1.508.998 2.367 1.818 3.165 4.107 3.173 4.13l.39 1.86L11.96.226h3.708l-5.482 12.558Z"/>
  <path fill="#fff" d="m8.288 7.004-1.16-5.648S6.989.226 5.496.226H.065L.002.438s2.61.513 5.114 2.436c2.393 1.84 3.172 4.13 3.172 4.13Z"/>
</svg>
