<svg xmlns="http://www.w3.org/2000/svg" width="17" height="19" fill="none" viewBox="0 0 17 19">
  <path stroke="#fff" stroke-linecap="round" stroke-linejoin="round" stroke-width="1.3" d="m10.528 17.96 4.166-.931A1.672 1.672 0 0 0 16 15.394V3.606c0-.785-.543-1.465-1.305-1.634l-4.166-.931A1.669 1.669 0 0 0 8.5 2.676v13.649c0 1.07.987 1.867 2.028 1.634Zm.785-9.441v1.884M1 13.248v1.925a1.88 1.88 0 0 0 1.875 1.884h2.813M1 5.711V3.827a1.88 1.88 0 0 1 1.875-1.885h2.813M1 9.48h4.688m-1.875 1.884L5.687 9.48 3.813 7.595"/>
</svg>
