<svg width="25" height="24" viewBox="0 0 25 24" fill="none" xmlns="http://www.w3.org/2000/svg">
<path fill-rule="evenodd" clip-rule="evenodd" d="M7.5 14C9.16 14 10.5 12.66 10.5 11C10.5 9.34 9.16 8 7.5 8C5.84 8 4.5 9.34 4.5 11C4.5 12.66 5.84 14 7.5 14ZM7.5 10C8.05 10 8.5 10.45 8.5 11C8.5 11.55 8.05 12 7.5 12C6.95 12 6.5 11.55 6.5 11C6.5 10.45 6.95 10 7.5 10ZM19.5 7H11.5V15H3.5V5H1.5V20H3.5V17H21.5V20H23.5V11C23.5 8.79 21.71 7 19.5 7ZM21.5 15H13.5V9H19.5C20.6 9 21.5 9.9 21.5 11V15Z" fill="white"/>
</svg>
