<svg width="25" height="24" viewBox="0 0 25 24" fill="none" xmlns="http://www.w3.org/2000/svg">
<path fill-rule="evenodd" clip-rule="evenodd" d="M2.56008 10.0595C3.07008 10.5695 3.88008 10.6195 4.43008 10.1595C9.10008 6.31953 15.8801 6.31953 20.5601 10.1495C21.1201 10.6095 21.9401 10.5695 22.4501 10.0595C23.0401 9.46953 23.0001 8.48953 22.3501 7.95953C16.6401 3.28953 8.38008 3.28953 2.66008 7.95953C2.01008 8.47953 1.96008 9.45953 2.56008 10.0595ZM10.3201 17.8195L11.7901 19.2895C12.1801 19.6795 12.8101 19.6795 13.2001 19.2895L14.6701 17.8195C15.1401 17.3495 15.0401 16.5395 14.4401 16.2295C13.2201 15.5995 11.7601 15.5995 10.5301 16.2295C9.96008 16.5395 9.85008 17.3495 10.3201 17.8195ZM6.59008 14.0895C7.08008 14.5795 7.85008 14.6295 8.42008 14.2195C10.8601 12.4895 14.1401 12.4895 16.5801 14.2195C17.1501 14.6195 17.9201 14.5795 18.4101 14.0895L18.4201 14.0795C19.0201 13.4795 18.9801 12.4595 18.2901 11.9695C14.8501 9.47953 10.1601 9.47953 6.71008 11.9695C6.02008 12.4695 5.98008 13.4795 6.59008 14.0895Z" fill="white"/>
</svg>
