<svg width="16" height="14" viewBox="0 0 16 14" fill="none" xmlns="http://www.w3.org/2000/svg">
<path d="M0 2.59961C0 1.49504 0.895432 0.599609 2 0.599609H12V1.39961H2C1.8443 1.39961 1.69553 1.42927 1.55902 1.48323L7.77056 6.31441C7.9112 6.42385 8.10728 6.42697 8.25144 6.32217L12.1647 3.47613L12.6353 4.12312L8.72192 6.96921C8.2896 7.28361 7.70136 7.27409 7.27944 6.94593L0.948136 2.02159C0.85372 2.19303 0.8 2.39005 0.8 2.59961V11.3996C0.8 12.0623 1.33726 12.5996 2 12.5996H14C14.6627 12.5996 15.2 12.0623 15.2 11.3996V4.59961H16V11.3996C16 12.5042 15.1046 13.3996 14 13.3996H2C0.895432 13.3996 0 12.5042 0 11.3996V2.59961Z" fill="#91BDFF"/>
<path d="M13.9074 3.65532L15.9074 1.25532L15.2928 0.743164L13.6166 2.7546L12.7201 1.55924L12.0801 2.03924L13.2801 3.63924C13.3534 3.73708 13.4676 3.79597 13.5898 3.79911C13.7121 3.80224 13.829 3.74927 13.9074 3.65532Z" fill="#91BDFF"/>
</svg>
