<svg width="24" height="5" viewBox="0 0 24 5" fill="none" xmlns="http://www.w3.org/2000/svg">
<path d="M3 4C3.82843 4 4.5 3.32843 4.5 2.5C4.5 1.67157 3.82843 1 3 1C2.17157 1 1.5 1.67157 1.5 2.5C1.5 3.32843 2.17157 4 3 4Z" fill="#FFFEFE" stroke="white" stroke-width="2" stroke-miterlimit="10"/>
<path d="M12 4C12.8284 4 13.5 3.32843 13.5 2.5C13.5 1.67157 12.8284 1 12 1C11.1716 1 10.5 1.67157 10.5 2.5C10.5 3.32843 11.1716 4 12 4Z" fill="#FFFEFE" stroke="white" stroke-width="2" stroke-miterlimit="10"/>
<path d="M21 4C21.8284 4 22.5 3.32843 22.5 2.5C22.5 1.67157 21.8284 1 21 1C20.1716 1 19.5 1.67157 19.5 2.5C19.5 3.32843 20.1716 4 21 4Z" fill="#FFFEFE" stroke="white" stroke-width="2" stroke-miterlimit="10"/>
</svg>
