<svg width="297" height="232" viewBox="0 0 297 232" fill="none" xmlns="http://www.w3.org/2000/svg">
<g clip-path="url(#clip0_3432_8831)">
<path d="M64.3367 60.8394C67.4653 60.8394 70.0016 58.4787 70.0016 55.5667C70.0016 52.6546 67.4653 50.2939 64.3367 50.2939C61.2081 50.2939 58.6719 52.6546 58.6719 55.5667C58.6719 58.4787 61.2081 60.8394 64.3367 60.8394Z" fill="white"/>
<path d="M68.7877 184.951C74.3745 184.951 78.9035 180.411 78.9035 174.811C78.9035 169.211 74.3745 164.671 68.7877 164.671C63.2009 164.671 58.6719 169.211 58.6719 174.811C58.6719 180.411 63.2009 184.951 68.7877 184.951Z" fill="white"/>
<path d="M235.496 78.6851C239.295 78.6851 242.375 75.7796 242.375 72.1956C242.375 68.6115 239.295 65.7061 235.496 65.7061C231.697 65.7061 228.617 68.6115 228.617 72.1956C228.617 75.7796 231.697 78.6851 235.496 78.6851Z" fill="white"/>
<path d="M148.64 200.364C191.278 200.364 225.843 167.314 225.843 126.546C225.843 85.7771 191.278 52.7275 148.64 52.7275C106.002 52.7275 71.437 85.7771 71.437 126.546C71.437 167.314 106.002 200.364 148.64 200.364Z" fill="white"/>
<g filter="url(#filter0_dd_3432_8831)">
<path d="M214.05 73.0068H82.9496C74.9046 73.0068 68.3828 79.5441 68.3828 87.6082V154.126C68.3828 162.19 74.9046 168.727 82.9496 168.727H214.05C222.095 168.727 228.617 162.19 228.617 154.126V87.6082C228.617 79.5441 222.095 73.0068 214.05 73.0068Z" fill="url(#paint0_linear_3432_8831)"/>
<path opacity="0.5" d="M101.563 90.8525H85.3773C82.2486 90.8525 79.7124 93.3948 79.7124 96.5309V106.265C79.7124 109.401 82.2486 111.943 85.3773 111.943H101.563C104.691 111.943 107.227 109.401 107.227 106.265V96.5309C107.227 93.3948 104.691 90.8525 101.563 90.8525Z" fill="#0066FF"/>
<path opacity="0.5" d="M199.888 112.755C206.369 112.755 211.622 107.671 211.622 101.399C211.622 95.1265 206.369 90.042 199.888 90.042C193.407 90.042 188.154 95.1265 188.154 101.399C188.154 107.671 193.407 112.755 199.888 112.755Z" fill="#0066FF"/>
<path d="M186.131 112.755C192.612 112.755 197.865 107.671 197.865 101.399C197.865 95.1265 192.612 90.042 186.131 90.042C179.65 90.042 174.396 95.1265 174.396 101.399C174.396 107.671 179.65 112.755 186.131 112.755Z" fill="#D5DDEA"/>
<g opacity="0.5">
<path d="M83.7588 150.069C83.7588 148.725 84.7825 147.636 86.045 147.636H108.903C110.165 147.636 111.189 148.725 111.189 150.069C111.189 151.413 110.165 152.503 108.903 152.503H86.045C84.7825 152.503 83.7588 151.413 83.7588 150.069Z" fill="#0066FF"/>
<path d="M118.046 150.069C118.046 148.725 119.07 147.636 120.332 147.636H143.191C144.453 147.636 145.476 148.725 145.476 150.069C145.476 151.413 144.453 152.503 143.191 152.503H120.332C119.07 152.503 118.046 151.413 118.046 150.069Z" fill="#0066FF"/>
<path d="M152.333 150.069C152.333 148.725 153.356 147.636 154.619 147.636H177.477C178.74 147.636 179.764 148.725 179.764 150.069C179.764 151.413 178.74 152.503 177.477 152.503H154.619C153.356 152.503 152.333 151.413 152.333 150.069Z" fill="#0066FF"/>
<path d="M186.62 150.069C186.62 148.725 187.644 147.636 188.906 147.636H211.764C213.026 147.636 214.05 148.725 214.05 150.069C214.05 151.413 213.026 152.503 211.764 152.503H188.906C187.644 152.503 186.62 151.413 186.62 150.069Z" fill="#0066FF"/>
</g>
</g>
<path d="M240.351 50.2935C242.81 50.2935 244.802 48.4776 244.802 46.2376C244.802 43.9975 242.81 42.1816 240.351 42.1816C237.893 42.1816 235.9 43.9975 235.9 46.2376C235.9 48.4776 237.893 50.2935 240.351 50.2935Z" fill="white"/>
</g>
<defs>
<filter id="filter0_dd_3432_8831" x="-19.6172" y="-20.9932" width="336.234" height="271.721" filterUnits="userSpaceOnUse" color-interpolation-filters="sRGB">
<feFlood flood-opacity="0" result="BackgroundImageFix"/>
<feColorMatrix in="SourceAlpha" type="matrix" values="0 0 0 0 0 0 0 0 0 0 0 0 0 0 0 0 0 0 127 0" result="hardAlpha"/>
<feOffset dy="-6"/>
<feGaussianBlur stdDeviation="44"/>
<feColorMatrix type="matrix" values="0 0 0 0 0.0627451 0 0 0 0 0.0941176 0 0 0 0 0.156863 0 0 0 0.03 0"/>
<feBlend mode="normal" in2="BackgroundImageFix" result="effect1_dropShadow_3432_8831"/>
<feColorMatrix in="SourceAlpha" type="matrix" values="0 0 0 0 0 0 0 0 0 0 0 0 0 0 0 0 0 0 127 0" result="hardAlpha"/>
<feOffset dy="20"/>
<feGaussianBlur stdDeviation="17"/>
<feColorMatrix type="matrix" values="0 0 0 0 0.0627451 0 0 0 0 0.0941176 0 0 0 0 0.156863 0 0 0 0.08 0"/>
<feBlend mode="normal" in2="effect1_dropShadow_3432_8831" result="effect2_dropShadow_3432_8831"/>
<feBlend mode="normal" in="SourceGraphic" in2="effect2_dropShadow_3432_8831" result="shape"/>
</filter>
<linearGradient id="paint0_linear_3432_8831" x1="73.9629" y1="167.594" x2="71.3098" y2="79.9792" gradientUnits="userSpaceOnUse">
<stop stop-color="white"/>
<stop offset="1" stop-color="white"/>
</linearGradient>
<clipPath id="clip0_3432_8831">
<rect width="297" height="232" fill="white"/>
</clipPath>
</defs>
</svg>
