<svg width="22" height="22" viewBox="0 0 22 22" fill="none" xmlns="http://www.w3.org/2000/svg">
<g clip-path="url(#clip0_4283_17376)">
<path d="M8.89941 16.8154V17.15C8.89941 18.3095 9.83991 19.25 11.0004 19.25C12.1609 19.25 13.1014 18.3095 13.1014 17.149V16.8145" stroke="white" stroke-width="1.3" stroke-linecap="round" stroke-linejoin="round"/>
<path d="M12.6808 5.27175V4.43025C12.6808 3.50258 11.9291 2.75 11.0006 2.75C10.072 2.75 9.32031 3.50258 9.32031 4.43025V5.27175" stroke="white" stroke-width="1.3" stroke-linecap="round" stroke-linejoin="round"/>
<path d="M6.01641 9.33896C6.01641 7.04455 7.87632 5.18555 10.1698 5.18555H11.8317C14.1262 5.18555 15.9852 7.04546 15.9852 9.33896V11.9029C15.9852 12.3887 16.1786 12.8553 16.5223 13.199L17.1099 13.7866C17.4537 14.1304 17.6471 14.597 17.6471 15.0828C17.6471 16.0398 16.8716 16.8153 15.9146 16.8153H6.08699C5.12999 16.8153 4.35449 16.0398 4.35449 15.0828C4.35449 14.597 4.54791 14.1304 4.89166 13.7866L5.47924 13.199C5.82299 12.8553 6.01641 12.3887 6.01641 11.9029V9.33896Z" stroke="white" stroke-width="1.3" stroke-linecap="round" stroke-linejoin="round"/>
</g>
<defs>
<clipPath id="clip0_4283_17376">
<rect width="22" height="22" fill="white"/>
</clipPath>
</defs>
</svg>
