<svg width="25" height="24" viewBox="0 0 25 24" fill="none" xmlns="http://www.w3.org/2000/svg">
<path d="M20.9849 4.59988C19.8591 3.47597 18.3333 2.84473 16.7424 2.84473C15.1516 2.84473 13.6258 3.47597 12.4999 4.59988C11.3716 3.4898 9.85038 2.87053 8.26756 2.87698C6.68474 2.88342 5.16858 3.51505 4.04935 4.63429C2.93012 5.75352 2.29849 7.26967 2.29204 8.8525C2.2856 10.4353 2.90486 11.9566 4.01494 13.0849L12.4999 21.5709L20.9849 13.0859C22.1092 11.96 22.7406 10.4339 22.7406 8.84288C22.7406 7.25181 22.1092 5.72577 20.9849 4.59988ZM19.5709 11.6709L12.4999 18.7429L5.42894 11.6719C5.0228 11.2748 4.70589 10.7958 4.4993 10.2666C4.2927 9.73755 4.20116 9.17051 4.23077 8.60328C4.26038 8.03605 4.41045 7.48162 4.67101 6.9769C4.93156 6.47218 5.29662 6.02874 5.74189 5.67609C6.18716 5.32344 6.70243 5.06966 7.25341 4.93165C7.8044 4.79364 8.37846 4.77455 8.93739 4.87566C9.49632 4.97677 10.0273 5.19577 10.495 5.51807C10.9627 5.84036 11.3564 6.25858 11.6499 6.74488L12.4999 8.11688L13.3499 6.74488C13.5091 6.48054 13.6983 6.23557 13.9139 6.01488C14.6764 5.28828 15.6892 4.88297 16.7424 4.88297C17.7957 4.88297 18.8085 5.28828 19.5709 6.01488C19.9424 6.38631 20.2371 6.82728 20.4381 7.3126C20.6391 7.79791 20.7426 8.31807 20.7426 8.84338C20.7426 9.36868 20.6391 9.88884 20.4381 10.3742C20.2371 10.8595 19.9424 11.3004 19.5709 11.6719V11.6709Z" fill="white"/>
<path d="M13.5 9H11.5V11H9.5V13H11.5V15H13.5V13H15.5V11H13.5V9Z" fill="white"/>
</svg>
