<svg width="30" height="27" viewBox="0 0 30 27" fill="none" xmlns="http://www.w3.org/2000/svg">
<path d="M28 16C28 16.5527 27.7774 17.0525 27.4174 17.4144C27.0568 17.7762 26.5596 18 26.0103 18H2.98965C1.89123 18 1 17.1048 1 16C1 15.704 1.0637 15.4237 1.17814 15.1713C1.27773 14.9518 1.41504 14.7541 1.5826 14.5856C1.94316 14.2238 2.44044 14 2.98965 14H26.0104C26.8151 14 27.5084 14.4799 27.8219 15.1713C27.9363 15.4237 28 15.704 28 16Z" fill="#884D00"/>
<path d="M28 15.5003C27.9028 15.7807 27.7682 16.0347 27.6053 16.2498C27.2535 16.7133 26.7682 17 26.2323 17H3.76774C2.98317 17 2.30662 16.3852 2 15.5004C2.09718 15.2193 2.23112 14.9661 2.39469 14.7502C2.74654 14.2867 3.2318 14 3.76774 14H26.2323C27.0174 13.9999 27.694 14.6148 28 15.5003Z" fill="#AA6100"/>
<path d="M30 19.809C30 22.2286 28.8296 24.0265 26.9378 25.219C25.0453 26.4122 22.4314 27 19.5442 27H10.4558C4.68147 27 0 24.6482 0 19.809C0 19.5393 0.0701367 19.2836 0.196992 19.0537C0.304336 18.8575 0.45252 18.6807 0.632461 18.53C1.02281 18.2026 1.56316 18 2.159 18H27.8411C28.7113 18 29.4615 18.4319 29.8031 19.0537C29.9299 19.2837 30 19.5394 30 19.809Z" fill="#FFA733"/>
<path d="M30 18.1164C29.6009 19.8234 28.6009 21.1531 27.1934 22.113C25.3397 23.3772 22.7793 24 19.9512 24H11.0488C6.07246 24 1.92537 22.0716 1 18.1164C1.10515 17.9086 1.2503 17.7212 1.42655 17.5616C1.80892 17.2146 2.33821 17 2.92185 17H28.0782C28.9307 17 29.6654 17.4577 30 18.1164Z" fill="#FFB655"/>
<path d="M23 13L17.9452 18.1751C17.8183 18.3044 17.6828 18.4188 17.5394 18.5177C16.4692 19.2595 15.003 19.1458 14.0548 18.1751L9 13H23Z" fill="#EEBF00"/>
<path d="M23 14L18.0561 18.6895C17.9319 18.8067 17.7994 18.9104 17.6592 19C17.282 18.8783 16.9279 18.6748 16.6273 18.3892L12 14H23Z" fill="#FFD422"/>
<path d="M30 14.2104C30 14.5145 29.9559 14.8256 29.8603 15.129C29.4858 16.3183 28.4833 16.78 27.702 16.1229L26.7649 15.3355C26.1111 14.7851 25.277 15.0104 24.8039 15.8656L24.764 15.9374C24.3099 16.7591 23.5182 17.0032 22.8716 16.5219L20.7734 14.9602C20.2892 14.6003 19.7089 14.6393 19.2505 15.0641L17.569 16.621C17.0861 17.0681 16.4708 17.0869 15.975 16.6691L14.0569 15.0509C13.5667 14.6372 12.9588 14.6505 12.4777 15.0857L10.7312 16.6643C10.2624 17.0877 9.67283 17.1121 9.1881 16.7291L6.9268 14.9407C6.48187 14.5891 5.94569 14.5793 5.49464 14.9149L3.38535 16.485C1.98074 16.6908 1.29749 15.5169 1.29749 15.5169C0.961069 14.8514 0.927333 14.0625 1.10938 13.4006C1.32569 12.6096 1.84968 12 2.53111 12H28.4699C29.1378 12 29.6716 12.6006 29.891 13.3971C29.962 13.6524 30 13.9279 30 14.2104Z" fill="#6DC82A"/>
<path d="M30 13.2429C29.9907 13.2739 29.9802 13.3043 29.9692 13.3353C29.5919 14.3939 28.5817 14.8046 27.7944 14.2202L26.8503 13.519C26.1915 13.0301 25.3511 13.2305 24.8744 13.9906L24.8342 14.0551C24.3767 14.786 23.5789 15.0031 22.9275 14.575L20.8133 13.1858C20.3255 12.865 19.7407 12.9004 19.2789 13.2782L17.5846 14.6631C17.098 15.0608 16.4781 15.077 15.9785 14.7053L14.0459 13.2658C13.5519 12.8979 12.9394 12.9103 12.4546 13.2968L10.6948 14.7016C10.2224 15.0776 9.62844 15.0999 9.14003 14.7593L6.86157 13.1684C6.41326 12.8551 5.87301 12.8464 5.41854 13.1454L3.29324 14.5415C1.87798 14.7251 1.18954 13.6803 1.18954 13.6803C1.10987 13.5406 1.04692 13.3948 1 13.2459C1.21795 12.5423 1.74592 12 2.43253 12H28.5681C29.2411 12.0001 29.7789 12.5343 30 13.2429Z" fill="#7ED63E"/>
<path d="M28.9996 10.8666C29.0039 11.0634 28.9769 11.2531 28.9241 11.4322C28.6865 12.229 27.9241 12.8118 27.0206 12.8118C23.4728 12.8118 14.0231 12.735 12.5979 12.7805C12.5659 12.7817 12.534 12.7828 12.5027 12.7834C10.703 12.849 10.293 13.1268 10.293 14.0507V17.431C10.293 17.6048 10.2199 17.7626 10.1015 17.8767C9.98304 17.9907 9.81975 18.0611 9.6393 18.0611C9.27774 18.0611 8.98494 18.343 8.98494 18.6912V20.1635C8.98494 20.313 8.96655 20.4579 8.93093 20.5974C8.72901 21.4024 7.97458 22 7.0686 22H7.02012C5.99012 22 5.15656 21.1944 5.15962 20.2025L5.16823 17.5374C5.16882 17.3329 5.25539 17.1473 5.39474 17.0137C5.53468 16.8795 5.72681 16.7968 5.93982 16.7968C6.36583 16.7968 6.71141 16.464 6.71141 16.0538V14.0507C6.71141 13.3662 6.13566 12.8118 5.42488 12.8118H3.01741C1.93404 12.8118 1.02252 11.9885 1.0004 10.9452C0.978287 9.8748 1.87324 9 2.97997 9H26.9814C28.0653 9 28.9781 9.82335 28.9996 10.8666Z" fill="#FF3501"/>
<path d="M27.9996 10.9314C28.0037 11.135 27.9776 11.3313 27.9264 11.5167C24.2856 11.513 15.586 11.439 14.2425 11.4842C12.4194 11.546 12.0083 11.8267 12.0083 12.7992V12.9148C10.2637 12.9826 9.86625 13.2701 9.86625 14.226V17.7237C9.86625 17.9035 9.79542 18.0668 9.68064 18.1848C9.56579 18.3029 9.4075 18.3756 9.23258 18.3756C8.8821 18.3756 8.59828 18.6674 8.59828 19.0276V20.5511C8.59828 20.7058 8.58045 20.8557 8.54592 21C7.68553 20.8575 7.02923 20.0887 7.0322 19.164L7.04054 16.4069C7.04112 16.1947 7.12503 16.0033 7.26011 15.8651C7.39577 15.7262 7.58201 15.6406 7.78849 15.6406C8.20144 15.6406 8.53643 15.2963 8.53643 14.8718V12.7991C8.53643 12.0909 7.97833 11.5173 7.28933 11.5173H4.95563C3.90546 11.5173 3.02187 10.6653 3.00043 9.58588C2.99626 9.38222 3.02244 9.18591 3.07423 9H26.0432C27.094 9 27.9788 9.85193 27.9996 10.9314Z" fill="#FF5023"/>
<path d="M17 7L12.7034 10.9669C12.2729 11.3643 11.7652 11.6472 11.2245 11.8144C9.89124 12.2301 8.35933 11.9473 7.29829 10.9669L3 7H17Z" fill="#EEBF00"/>
<path d="M18 7L13.5367 11.1198C13.0894 11.5325 12.562 11.8263 12.0003 12C11.4392 11.8263 10.9118 11.5325 10.4652 11.1198L6 7H18Z" fill="#FFD422"/>
<path d="M30 7.45951C30 7.49026 29.9988 7.52039 29.997 7.55053C29.9732 7.93955 29.7975 8.2903 29.5255 8.54893C29.2321 8.82783 28.8272 9 28.3795 9H1.62047C0.725742 8.99994 0 8.31002 0 7.45951C0 5.6135 0.900176 4.22373 2.25961 3.17838C3.36287 2.32959 4.76924 1.70746 6.24152 1.25121C10.3607 -0.023698 15 3.09841e-05 15 3.09841e-05C15 3.09841e-05 30 -0.0770602 30 7.45951Z" fill="#FFA733"/>
<path d="M30 7.90356C30 7.93614 29.9988 7.96807 29.9969 8H4.63827C3.73377 8 3 7.26901 3 6.36781C3 4.4119 3.91006 2.93941 5.28443 1.83188C5.50514 1.65371 5.73759 1.48545 5.98052 1.32569C10.145 -0.0251087 14.8353 3.28286e-05 14.8353 3.28286e-05C14.8353 3.28286e-05 30 -0.0816479 30 7.90356Z" fill="#FFB655"/>
<path d="M22.8071 2.83455C23.0599 3.09849 23.0479 3.51461 22.7805 3.76405C22.513 4.01343 22.0912 4.00163 21.8385 3.73776C21.5857 3.47388 21.1205 2.55944 21.388 2.31C21.6555 2.06057 22.5544 2.57057 22.8071 2.83455Z" fill="#FFF5CC"/>
<path d="M19.275 6.08382C19.4069 6.42281 19.2354 6.80314 18.8918 6.93331C18.5482 7.06348 18.1628 6.89421 18.0308 6.55522C17.8989 6.21623 17.8214 5.19595 18.1649 5.06578C18.5085 4.93567 19.1431 5.74483 19.275 6.08382Z" fill="#FFF5CC"/>
<path d="M15.6384 3.3796C15.6384 3.74274 15.34 4.03707 14.972 4.03707C14.604 4.03707 14.3057 3.74269 14.3057 3.3796C14.3057 3.01645 14.604 2.03662 14.972 2.03662C15.3401 2.03656 15.6384 3.01645 15.6384 3.3796Z" fill="#FFF5CC"/>
<path d="M11.9739 6.4957C11.8818 6.84727 11.5183 7.05867 11.162 6.96789C10.8057 6.8771 10.5914 6.51845 10.6834 6.16688C10.7754 5.8153 11.3127 4.94019 11.6691 5.03098C12.0254 5.12176 12.0659 6.14418 11.9739 6.4957Z" fill="#FFF5CC"/>
<path d="M8.30823 3.63211C8.14778 3.95886 7.74926 4.09549 7.41799 3.93717C7.08683 3.77886 6.94835 3.38565 7.1088 3.0588C7.26926 2.73206 7.9707 1.97846 8.30197 2.13683C8.63319 2.2952 8.46869 3.30537 8.30823 3.63211Z" fill="#FFF5CC"/>
</svg>
