<svg width="32" height="26" viewBox="0 0 32 26" fill="none" xmlns="http://www.w3.org/2000/svg">
<g opacity="0.8">
<path d="M11.0949 9.52893C10.9887 9.39958 10.8626 9.29697 10.7237 9.22695C10.5849 9.15693 10.436 9.12089 10.2857 9.12089C10.1354 9.12089 9.98654 9.15693 9.84769 9.22695C9.70885 9.29697 9.58273 9.39958 9.47657 9.52893L8 11.3261L6.52343 9.52893C6.41717 9.39979 6.29102 9.29736 6.15219 9.22747C6.01336 9.15759 5.86456 9.12162 5.71429 9.12162C5.56401 9.12162 5.41521 9.15759 5.27638 9.22747C5.13755 9.29736 5.0114 9.39979 4.90514 9.52893C4.79888 9.65806 4.7146 9.81136 4.65709 9.98008C4.59958 10.1488 4.56999 10.3296 4.56999 10.5123C4.56999 10.6949 4.59958 10.8757 4.65709 11.0444C4.7146 11.2132 4.79888 11.3665 4.90514 11.4956L6.384 13.29L4.90514 15.0845C4.79888 15.2136 4.7146 15.3669 4.65709 15.5356C4.59958 15.7044 4.56999 15.8852 4.56999 16.0678C4.56999 16.2504 4.59958 16.4313 4.65709 16.6C4.7146 16.7687 4.79888 16.922 4.90514 17.0511C5.11974 17.3119 5.4108 17.4585 5.71429 17.4585C5.86456 17.4585 6.01336 17.4225 6.15219 17.3526C6.29102 17.2827 6.41717 17.1803 6.52343 17.0511L8 15.2539L9.47657 17.0511C9.58283 17.1803 9.70898 17.2827 9.84781 17.3526C9.98664 17.4225 10.1354 17.4585 10.2857 17.4585C10.436 17.4585 10.5848 17.4225 10.7236 17.3526C10.8625 17.2827 10.9886 17.1803 11.0949 17.0511C11.2011 16.922 11.2854 16.7687 11.3429 16.6C11.4004 16.4313 11.43 16.2504 11.43 16.0678C11.43 15.8852 11.4004 15.7044 11.3429 15.5356C11.2854 15.3669 11.2011 15.2136 11.0949 15.0845L9.616 13.29L11.0949 11.4956C11.2013 11.3666 11.2857 11.2133 11.3433 11.0446C11.401 10.8758 11.4306 10.6949 11.4306 10.5123C11.4306 10.3296 11.401 10.1487 11.3433 9.97995C11.2857 9.81121 11.2013 9.65794 11.0949 9.52893ZM18.6194 9.52893C18.7257 9.39979 18.8518 9.29736 18.9907 9.22747C19.1295 9.15759 19.2783 9.12162 19.4286 9.12162C19.5788 9.12162 19.7276 9.15759 19.8665 9.22747C20.0053 9.29736 20.1315 9.39979 20.2377 9.52893C20.344 9.65806 20.4283 9.81136 20.4858 9.98008C20.5433 10.1488 20.5729 10.3296 20.5729 10.5123C20.5729 10.6949 20.5433 10.8757 20.4858 11.0444C20.4283 11.2132 20.344 11.3665 20.2377 11.4956L18.7589 13.29L20.2377 15.0845C20.4523 15.3453 20.5729 15.699 20.5729 16.0678C20.5729 16.4366 20.4523 16.7904 20.2377 17.0511C20.0231 17.3119 19.7321 17.4585 19.4286 17.4585C19.1251 17.4585 18.834 17.3119 18.6194 17.0511L17.1429 15.2539L15.6663 17.0511C15.56 17.1803 15.4339 17.2827 15.295 17.3526C15.1562 17.4225 15.0074 17.4585 14.8571 17.4585C14.7069 17.4585 14.5581 17.4225 14.4192 17.3526C14.2804 17.2827 14.1543 17.1803 14.048 17.0511C13.9417 16.922 13.8575 16.7687 13.7999 16.6C13.7424 16.4313 13.7128 16.2504 13.7128 16.0678C13.7128 15.8852 13.7424 15.7044 13.7999 15.5356C13.8575 15.3669 13.9417 15.2136 14.048 15.0845L15.5269 13.29L14.048 11.4956C13.9417 11.3665 13.8575 11.2132 13.7999 11.0444C13.7424 10.8757 13.7128 10.6949 13.7128 10.5123C13.7128 10.3296 13.7424 10.1488 13.7999 9.98008C13.8575 9.81136 13.9417 9.65806 14.048 9.52893C14.1543 9.39979 14.2804 9.29736 14.4192 9.22747C14.5581 9.15759 14.7069 9.12162 14.8571 9.12162C15.0074 9.12162 15.1562 9.15759 15.295 9.22747C15.4339 9.29736 15.56 9.39979 15.6663 9.52893L17.1429 11.3261L18.6194 9.52893ZM24 14.6789C23.6969 14.6789 23.4062 14.8253 23.1919 15.0857C22.9776 15.3462 22.8571 15.6995 22.8571 16.0678C22.8571 16.4362 22.9776 16.7894 23.1919 17.0499C23.4062 17.3104 23.6969 17.4567 24 17.4567H26.2857C26.5888 17.4567 26.8795 17.3104 27.0938 17.0499C27.3082 16.7894 27.4286 16.4362 27.4286 16.0678C27.4286 15.6995 27.3082 15.3462 27.0938 15.0857C26.8795 14.8253 26.5888 14.6789 26.2857 14.6789H24ZM5.71429 0.790039C4.19876 0.790039 2.74531 1.52168 1.67368 2.82402C0.602039 4.12636 0 5.8927 0 7.73448V18.8456C0 19.7576 0.147804 20.6606 0.434974 21.5031C0.722144 22.3457 1.14306 23.1112 1.67368 23.7561C2.74531 25.0584 4.19876 25.79 5.71429 25.79H26.2857C27.0361 25.79 27.7792 25.6104 28.4725 25.2614C29.1658 24.9124 29.7957 24.4009 30.3263 23.7561C30.8569 23.1112 31.2779 22.3457 31.565 21.5031C31.8522 20.6606 32 19.7576 32 18.8456V7.73448C32 5.8927 31.398 4.12636 30.3263 2.82402C29.2547 1.52168 27.8012 0.790039 26.2857 0.790039H5.71429ZM2.28571 7.73448C2.28571 6.62941 2.64694 5.56961 3.28992 4.7882C3.9329 4.0068 4.80497 3.56782 5.71429 3.56782H26.2857C27.195 3.56782 28.0671 4.0068 28.7101 4.7882C29.3531 5.56961 29.7143 6.62941 29.7143 7.73448V18.8456C29.7143 19.9507 29.3531 21.0105 28.7101 21.7919C28.0671 22.5733 27.195 23.0123 26.2857 23.0123H5.71429C4.80497 23.0123 3.9329 22.5733 3.28992 21.7919C2.64694 21.0105 2.28571 19.9507 2.28571 18.8456V7.73448Z" fill="white"/>
</g>
</svg>
