<svg width="253" height="87" viewBox="0 0 253 87" fill="none" xmlns="http://www.w3.org/2000/svg">
<rect x="26.6084" y="22.8154" width="15" height="3" rx="1.5" transform="rotate(-37 26.6084 22.8154)" fill="#FE4B20"/>
<rect x="240.137" y="39.7427" width="15" height="3" rx="1.5" transform="rotate(-45 240.137 39.7427)" fill="#FE4B20"/>
<rect x="89.7783" y="0.763184" width="6" height="6" transform="rotate(42 89.7783 0.763184)" fill="#9186F4"/>
<rect x="5.79297" y="79.1548" width="6" height="6" transform="rotate(70 5.79297 79.1548)" fill="#9186F4"/>
<rect x="130.793" y="27.1548" width="6" height="6" transform="rotate(70 130.793 27.1548)" fill="#FE4B20"/>
<rect x="208.386" y="30.2017" width="10" height="2" rx="1" transform="rotate(138 208.386 30.2017)" fill="#9186F4"/>
<rect x="71.7715" y="50.4321" width="10" height="2" rx="1" transform="rotate(-149 71.7715 50.4321)" fill="#9186F4"/>
<path d="M210.571 54.3501L207.142 57.1966L203.002 55.5489C202.712 55.4335 202.424 55.7208 202.54 56.0107L204.188 60.1511L201.341 63.5797C201.142 63.8198 201.326 64.1818 201.638 64.1617L206.085 63.874L208.466 67.6408C208.632 67.9046 209.034 67.841 209.111 67.5386L210.211 63.2204L214.53 62.1198C214.832 62.0427 214.896 61.6414 214.632 61.4747L210.865 59.0936L211.153 54.6466C211.173 54.3352 210.811 54.1507 210.571 54.3501Z" fill="#FFDC64"/>
<path d="M199.463 58.8876C199.846 58.9498 201.251 59.4525 202.065 59.7504C202.193 59.7972 202.163 59.9859 202.026 59.9897C201.16 60.014 199.667 60.0448 199.285 59.9825C198.983 59.9333 198.778 59.6483 198.827 59.3459C198.876 59.0435 199.161 58.8384 199.463 58.8876Z" fill="#FFF082"/>
<path d="M205.878 52.4728C205.941 52.8549 206.443 54.2605 206.741 55.0747C206.788 55.2027 206.977 55.1719 206.98 55.0357C207.005 54.1691 207.035 52.6766 206.973 52.2945C206.924 51.9921 206.639 51.7869 206.337 51.8362C206.034 51.8854 205.829 52.1704 205.878 52.4728Z" fill="#FFF082"/>
<path d="M214.921 56.46C214.575 56.6354 213.389 57.5414 212.704 58.0726C212.596 58.1561 212.683 58.3265 212.814 58.2887C213.647 58.0486 215.078 57.6244 215.423 57.449C215.696 57.3103 215.805 56.9764 215.666 56.7033C215.528 56.4301 215.194 56.3213 214.921 56.46Z" fill="#FFF082"/>
<path d="M203.45 67.9306C203.626 67.5854 204.532 66.399 205.063 65.7139C205.147 65.6062 205.317 65.6928 205.279 65.8237C205.039 66.6568 204.615 68.088 204.44 68.4331C204.301 68.7062 203.967 68.8151 203.694 68.6763C203.421 68.5376 203.312 68.2037 203.45 67.9306Z" fill="#FFF082"/>
<path d="M213.232 67.002C212.958 66.7282 212.111 65.499 211.625 64.7816C211.548 64.6688 211.683 64.5336 211.796 64.6101C212.513 65.0968 213.743 65.9438 214.016 66.2176C214.233 66.4342 214.233 66.7854 214.016 67.002C213.8 67.2186 213.449 67.2186 213.232 67.002Z" fill="#FFF082"/>
<path d="M204.507 56.1481L203.002 55.5489C202.712 55.4335 202.424 55.7208 202.54 56.0107L204.188 60.1512L201.341 63.5797C201.142 63.8198 201.326 64.1818 201.638 64.1617L206.085 63.874L208.466 67.6408C208.632 67.9046 209.034 67.841 209.111 67.5386L209.257 66.9639C206.022 62.5459 204.874 58.0748 204.507 56.1481Z" fill="#FFC850"/>
</svg>
