<svg width="25" height="25" viewBox="0 0 25 25" fill="none" xmlns="http://www.w3.org/2000/svg">
<path d="M11.8162 3.5646L2.57788 20.0587C2.50113 20.1977 2.46851 20.3567 2.48438 20.5146C2.50025 20.6726 2.56385 20.8219 2.66671 20.9428C2.76957 21.0637 2.90682 21.1504 3.06017 21.1913C3.21353 21.2323 3.37572 21.2255 3.52515 21.172L12.2361 18.0666C12.4052 17.9981 12.5943 17.9981 12.7634 18.0666L21.4744 21.172C21.6238 21.2255 21.786 21.2323 21.9393 21.1913C22.0927 21.1504 22.2299 21.0637 22.3328 20.9428C22.4357 20.8219 22.4993 20.6726 22.5151 20.5146C22.531 20.3567 22.4984 20.1977 22.4216 20.0587L13.1834 3.5646C13.1158 3.44249 13.0168 3.3407 12.8965 3.26982C12.7763 3.19895 12.6393 3.16157 12.4998 3.16157C12.3602 3.16157 12.2232 3.19895 12.103 3.26982C11.9828 3.3407 11.8837 3.44249 11.8162 3.5646V3.5646Z" stroke="white" stroke-width="2" stroke-linecap="round" stroke-linejoin="round"/>
<path d="M12.5 17.9688L12.5 11.7188" stroke="white" stroke-width="2" stroke-linecap="round" stroke-linejoin="round"/>
</svg>
