<svg xmlns="http://www.w3.org/2000/svg" width="47" height="47" fill="none" viewBox="0 0 47 47">
  <g clip-path="url(#a)">
    <path fill="url(#b)" d="M23.5 47C36.479 47 47 36.479 47 23.5S36.479 0 23.5 0 0 10.521 0 23.5 10.521 47 23.5 47Z"/>
    <path fill="#fff" d="M33.66 13.232c-6.368-4.723-13.23-4.843-19.784-.084a.917.917 0 1 0 1.078 1.485c5.923-4.301 11.908-4.159 17.613.073a.917.917 0 0 0 1.093-1.474Z"/>
    <path fill="#fff" d="M23.71 13.54c-3.896 0-8.907 2.596-11.037 5.791A.917.917 0 1 0 14.2 20.35c1.766-2.65 6.21-4.973 9.51-4.973 3.233 0 7.653 1.724 9.479 4.919a.917.917 0 1 0 1.593-.91c-2.103-3.68-7.042-5.844-11.071-5.844Zm-4.953 15.106c0-3.001 2.222-5.443 4.954-5.443 2.731 0 4.953 2.442 4.953 5.443v.979a.917.917 0 0 0 1.835 0v-.979c0-4.013-3.045-7.277-6.788-7.277-3.743 0-6.789 3.264-6.789 7.277 0 3.901 2.933 5.99 4.228 7.861a.918.918 0 0 0 1.508-1.044c-1.4-2.024-3.9-3.703-3.9-6.817Z"/>
    <path fill="#fff" d="M33.828 31.992c2.835-5.67-2.207-14.537-10.117-14.537-5.569 0-10.702 4.72-10.702 10.702 0 2.172.278 4.01 1.638 5.915a.917.917 0 0 0 1.494-1.066c-.958-1.342-1.297-2.61-1.297-4.849 0-4.724 4.143-8.867 8.867-8.867 2.378 0 4.727 1.048 6.444 2.877 2.43 2.59 3.304 6.46 2.032 9.005-1.325 2.648-5.601 1.897-5.601-1.547 0-6.803-6.97-4.769-5.722.223a.917.917 0 0 0 1.78-.445c-.32-1.282.268-2.285 1.067-2.285.718 0 1.04 1.259 1.04 2.507 0 5.371 6.88 6.759 9.076 2.367Z"/>
  </g>
  <defs>
    <linearGradient id="b" x1="22.354" x2="56.383" y1="56.228" y2="26.637" gradientUnits="userSpaceOnUse">
      <stop stop-color="#5E52D2"/>
      <stop offset="1" stop-color="#B697F9"/>
    </linearGradient>
    <clipPath id="a">
      <path fill="#fff" d="M0 0h47v47H0z"/>
    </clipPath>
  </defs>
</svg>
