<svg width="25" height="24" viewBox="0 0 25 24" fill="none" xmlns="http://www.w3.org/2000/svg">
<path fill-rule="evenodd" clip-rule="evenodd" d="M3.5 19H21.5V14H20.5C19.397 14 18.5 13.103 18.5 12C18.5 10.897 19.397 10 20.5 10H21.5V5H3.5V10H4.5C5.603 10 6.5 10.897 6.5 12C6.5 13.103 5.603 14 4.5 14H3.5V19ZM19.5 17H5.5V15.874C7.223 15.428 8.5 13.86 8.5 12C8.5 10.14 7.223 8.572 5.5 8.126V7H19.5V8.126C17.777 8.572 16.5 10.139 16.5 12C16.5 13.861 17.777 15.429 19.5 15.874V17ZM10.5 13H14.5V15H10.5V13ZM14.5 9H10.5V11H14.5V9Z" fill="white"/>
</svg>
