<svg width="20" height="19" viewBox="0 0 20 19" fill="none" xmlns="http://www.w3.org/2000/svg">
<path d="M4.15674 12.6674C4.34781 12.7807 4.51185 12.9289 4.64276 13.0999H7.11665V10.7013L5.94362 9.974C5.68235 9.81136 5.60187 9.4686 5.76384 9.20716C5.92584 8.94648 6.26881 8.86593 6.53019 9.02781L7.67328 9.73613L8.66964 9.11824C6.68231 6.39364 7.13869 2.53209 9.78403 0.353166C5.42662 -1.10679 0.855653 2.13842 0.835026 6.79874C0.824265 9.27026 2.14008 11.4666 4.15674 12.6674Z" fill="url(#paint0_linear_4289_17752)"/>
<path d="M4.99023 14.2129H10.2593V15.4745H4.99023V14.2129Z" fill="url(#paint1_linear_4289_17752)"/>
<path d="M8.22949 10.7012V13.0997H10.6002C10.7261 12.9341 10.8831 12.7912 11.0658 12.684C11.5717 12.3861 12.0362 12.0228 12.4478 11.6071C11.2851 11.3449 10.2409 10.7673 9.41061 9.96777C9.37892 9.98829 9.15076 10.1297 8.22949 10.7012Z" fill="url(#paint2_linear_4289_17752)"/>
<path d="M13.8589 0.00195312C10.9403 0.00195312 8.55273 2.41417 8.55273 5.34549C8.55273 8.10277 10.6695 10.3858 13.3835 10.6298C16.5245 10.9102 19.1651 8.42045 19.1651 5.34549C19.1651 2.41949 16.7847 0.00195312 13.8589 0.00195312ZM14.4162 7.75774V7.87401C14.4162 8.18181 14.167 8.43109 13.8597 8.43109C13.5522 8.43109 13.303 8.18181 13.303 7.87401V7.82083C13.0466 7.77599 12.8123 7.68023 12.5164 7.48643C12.2591 7.31771 12.187 6.97342 12.3552 6.71578C12.5236 6.45814 12.8685 6.3867 13.1257 6.55466C13.3971 6.7325 13.485 6.74619 13.8559 6.74315C14.214 6.74087 14.3566 6.45967 14.3845 6.29399C14.4095 6.14579 14.3814 5.94818 14.1055 5.85014C13.6434 5.68674 13.1696 5.49979 12.8339 5.23607C12.0695 4.63643 12.3002 3.2669 13.3031 2.90286V2.82231C13.3031 2.51451 13.5523 2.26597 13.8597 2.26597C14.1671 2.26597 14.4163 2.51451 14.4163 2.82231V2.85346C14.6905 2.93022 14.9114 3.07083 15.0631 3.22511C15.2787 3.44399 15.2757 3.79663 15.0565 4.01171C14.8375 4.22755 14.4854 4.22449 14.2698 4.00561C14.2388 3.97521 14.0673 3.83234 13.6961 3.94406C13.5479 3.9889 13.5081 4.14241 13.4994 4.18877C13.4813 4.28453 13.5071 4.34914 13.5209 4.36054C13.7308 4.5247 14.1218 4.67519 14.4766 4.80059C15.9435 5.31967 15.7648 7.27058 14.4162 7.75774Z" fill="url(#paint3_linear_4289_17752)"/>
<path d="M5.88086 17.2559C5.88086 18.2181 6.66318 19.0001 7.62481 19.0001C8.58644 19.0001 9.36878 18.2181 9.36878 17.2559V16.5879H5.88086V17.2559Z" fill="url(#paint4_linear_4289_17752)"/>
<defs>
<linearGradient id="paint0_linear_4289_17752" x1="5.30949" y1="0" x2="5.30949" y2="13.0999" gradientUnits="userSpaceOnUse">
<stop stop-color="white" stop-opacity="0.8"/>
<stop offset="0.495" stop-color="white" stop-opacity="0.5675"/>
<stop offset="1" stop-color="white" stop-opacity="0.3"/>
</linearGradient>
<linearGradient id="paint1_linear_4289_17752" x1="7.62475" y1="14.2129" x2="7.62475" y2="15.4745" gradientUnits="userSpaceOnUse">
<stop stop-color="white" stop-opacity="0.8"/>
<stop offset="0.495" stop-color="white" stop-opacity="0.5675"/>
<stop offset="1" stop-color="white" stop-opacity="0.3"/>
</linearGradient>
<linearGradient id="paint2_linear_4289_17752" x1="10.3386" y1="9.96777" x2="10.3386" y2="13.0997" gradientUnits="userSpaceOnUse">
<stop stop-color="white" stop-opacity="0.8"/>
<stop offset="0.495" stop-color="white" stop-opacity="0.5675"/>
<stop offset="1" stop-color="white" stop-opacity="0.3"/>
</linearGradient>
<linearGradient id="paint3_linear_4289_17752" x1="13.8589" y1="0.00195312" x2="13.8589" y2="10.6514" gradientUnits="userSpaceOnUse">
<stop stop-color="white" stop-opacity="0.8"/>
<stop offset="0.495" stop-color="white" stop-opacity="0.5675"/>
<stop offset="1" stop-color="white" stop-opacity="0.3"/>
</linearGradient>
<linearGradient id="paint4_linear_4289_17752" x1="7.62482" y1="16.5879" x2="7.62482" y2="19.0001" gradientUnits="userSpaceOnUse">
<stop stop-color="white" stop-opacity="0.8"/>
<stop offset="0.495" stop-color="white" stop-opacity="0.5675"/>
<stop offset="1" stop-color="white" stop-opacity="0.3"/>
</linearGradient>
</defs>
</svg>
