<svg width="25" height="24" viewBox="0 0 25 24" fill="none" xmlns="http://www.w3.org/2000/svg">
<path fill-rule="evenodd" clip-rule="evenodd" d="M9 16C8.17157 16 7.5 15.3284 7.5 14.5C7.5 13.6716 8.17157 13 9 13C9.82843 13 10.5 13.6716 10.5 14.5C10.5 15.3284 9.82843 16 9 16ZM16 16C15.1716 16 14.5 15.3284 14.5 14.5C14.5 13.6716 15.1716 13 16 13C16.8284 13 17.5 13.6716 17.5 14.5C17.5 15.3284 16.8284 16 16 16ZM12.5 2C16.5 2 20.5 2.5 20.5 6V15.5C20.5 17.43 18.93 19 17 19L18.5 20.5V21H16.5L14.5 19H10.5L8.5 21H6.5V20.5L8 19C6.07 19 4.5 17.43 4.5 15.5V6C4.5 2.5 8.5 2 12.5 2ZM12.5 4C8.99 4 7.54 4.48 6.93 5H18.07C17.46 4.48 16.01 4 12.5 4ZM6.5 7V10H11.5V7H6.5ZM18.5 15.5V12H6.5V15.5C6.5 16.33 7.17 17 8 17H17C17.83 17 18.5 16.33 18.5 15.5ZM18.5 10V7H13.5V10H18.5Z" fill="white"/>
</svg>
